<svg xmlns="http://www.w3.org/2000/svg" viewBox="0 0 150 150" fill="rgb(200, 0, 0)">
  <g>
  <path d="m60.08,27.05l41.04,0l7.26,12.93l-15.66,11.25c-4.12,-2.41 -8.91,-3.79 -14.02,-3.79c-15.34,0 -27.78,12.44 -27.78,27.78c0,1.93 0.2,3.81 0.57,5.62l-35.49,25.49l0,-60.77c0,-1.02 0.84,-1.86 1.86,-1.86c10.33,0 20.66,0 30.99,0c2.42,-4.77 4.84,-9.55 7.26,-14.32c1.47,-2.91 0.66,-2.33 3.97,-2.33l0,0zm63.84,16.65l5.83,0c1.02,0 1.86,0.86 1.86,1.86l0,64.99c0,1 -0.86,1.86 -1.86,1.86l-101.49,0l28.34,-20.36c5.08,6.66 13.09,10.95 22.1,10.95c15.34,0 27.78,-12.44 27.78,-27.78c0,-5.77 -1.76,-11.12 -4.77,-15.57l22.07,-15.85c0.05,-0.03 0.09,-0.06 0.14,-0.1l0,0zm-31.12,22.35c1.72,2.64 2.72,5.79 2.72,9.17c0,9.29 -7.53,16.82 -16.82,16.82c-5.35,0 -10.11,-2.5 -13.19,-6.38l27.29,-19.61l0,0z"/>
  <polygon points="26.039999961853027,122.63999938964844 18.980000019073486,112.83000183105469 131.81999969482422,33.15000009536743 138.87999725341797,42.96000003814697 26.039999961853027,122.63999938964844 "/>
  </g>
</svg>
